<svg width="16" height="16" viewBox="0 0 16 16" fill="none" xmlns="http://www.w3.org/2000/svg">
<path d="M13.3333 4.6665H7.33329M9.33329 11.3332H3.33329M9.33329 11.3332C9.33329 12.4377 10.2287 13.3332 11.3333 13.3332C12.4379 13.3332 13.3333 12.4377 13.3333 11.3332C13.3333 10.2286 12.4379 9.33317 11.3333 9.33317C10.2287 9.33317 9.33329 10.2286 9.33329 11.3332ZM6.66663 4.6665C6.66663 5.77107 5.7712 6.6665 4.66663 6.6665C3.56206 6.6665 2.66663 5.77107 2.66663 4.6665C2.66663 3.56193 3.56206 2.6665 4.66663 2.6665C5.7712 2.6665 6.66663 3.56193 6.66663 4.6665Z" stroke="currentColor" stroke-linecap="round" stroke-linejoin="round"/>
</svg>
